<svg width="660" height="660" viewBox="0 0 660 660" fill="none" xmlns="http://www.w3.org/2000/svg">
<g opacity="0.07">
<path d="M602.387 143.65C542.928 56.9056 443.11 -0.000732422 330 -0.000732422C147.746 -0.000732422 0 147.745 0 329.999C0 356.514 3.1273 382.299 9.03288 407.005L177.082 238.956C193.191 222.847 219.309 222.847 235.418 238.956L371.25 374.788L602.387 143.65Z" fill="#8794BA"/>
<path d="M641.609 221.101L400.418 462.292C384.309 478.402 358.191 478.402 342.082 462.292L206.25 326.461L41.814 490.897C98.2657 591.792 206.168 659.999 330 659.999C512.254 659.999 660 512.253 660 329.999C660 291.841 653.523 255.195 641.609 221.101Z" fill="#8794BA"/>
</g>
</svg>
